<?xml version="1.0" standalone="no"?>
<!DOCTYPE svg PUBLIC "-//W3C//DTD SVG 20010904//EN"
 "http://www.w3.org/TR/2001/REC-SVG-20010904/DTD/svg10.dtd">
<svg version="1.0" xmlns="http://www.w3.org/2000/svg"
 width="564.000000pt" height="1002.000000pt" viewBox="0 0 564.000000 1002.000000"
 preserveAspectRatio="xMidYMid meet">

<g transform="translate(0.000000,1002.000000) scale(0.100000,-0.100000)"
fill="#000000" stroke="none">
<path d="M0 7508 c0 -1382 4 -2519 9 -2526 6 -10 22 -12 57 -8 27 3 40 3 29 0
-11 -3 -37 -10 -57 -15 l-38 -10 0 -2474 0 -2475 1763 0 1764 0 22 82 c12 46
24 97 27 113 7 37 11 42 25 28 8 -8 5 -36 -10 -101 -31 -132 -38 -122 87 -122
l108 0 13 60 c8 33 18 63 22 66 14 9 10 -59 -6 -86 -8 -14 -14 -28 -15 -32 0
-14 118 -9 123 5 4 9 6 9 6 0 1 -10 179 -13 856 -13 l855 0 0 1518 0 1518 -47
46 c-59 56 -74 64 -141 73 -29 4 -51 9 -48 12 3 3 -6 28 -20 55 -25 49 -26 78
-3 78 6 0 40 -28 76 -62 36 -35 71 -69 79 -76 8 -7 14 -17 14 -21 0 -4 12 -14
28 -22 15 -8 35 -23 44 -34 16 -19 17 170 18 3458 l0 3477 -2820 0 -2820 0 0
-2512z m2295 607 c-84 -24 -102 -26 -50 -6 28 11 61 19 75 20 15 0 4 -6 -25
-14z m5 -60 c0 -9 -75 -41 -138 -60 -59 -17 -67 -23 -102 -75 -21 -31 -44 -76
-51 -100 -7 -25 -17 -48 -23 -52 -5 -3 -9 -39 -9 -80 1 -72 1 -72 -6 -18 -6
49 -37 128 -46 118 -2 -2 1 -22 8 -45 9 -34 8 -43 -6 -57 -8 -9 -18 -16 -22
-16 -7 0 -60 -61 -60 -69 1 -6 -19 -32 -42 -56 -7 -8 -13 -17 -13 -22 0 -5 -9
-26 -20 -48 -11 -22 -20 -48 -20 -58 0 -16 2 -17 16 -7 13 12 14 10 3 -13 -7
-15 -16 -24 -22 -20 -6 3 -7 2 -4 -4 10 -16 -25 -112 -39 -106 -7 2 -15 -5
-19 -16 -9 -28 -23 -26 -31 4 -8 34 39 246 75 334 15 38 50 102 77 142 66 101
65 100 88 81 18 -16 18 -16 7 5 -10 20 -7 27 26 59 43 41 127 98 161 108 12 4
22 11 22 16 0 17 104 60 147 60 24 0 43 -2 43 -5z m1074 -210 c43 -60 91 -155
78 -155 -3 0 -47 42 -97 93 -50 51 -119 114 -153 141 -61 48 -78 76 -26 41
l27 -17 -16 23 c-15 21 -15 23 6 34 20 11 28 7 80 -44 32 -31 78 -83 101 -116z
m-522 82 c-9 -10 -6 -17 8 -27 14 -10 16 -16 7 -22 -8 -5 -9 -10 -1 -15 5 -5
20 -28 33 -53 29 -58 44 -84 60 -103 7 -9 10 -21 6 -27 -3 -5 -1 -10 4 -10 6
0 11 -9 11 -20 0 -11 4 -20 8 -20 4 0 14 -21 21 -47 7 -27 24 -70 36 -98 13
-27 31 -78 40 -112 19 -69 23 -51 -40 -187 -16 -33 -36 -61 -46 -63 -10 -3
-17 -9 -14 -13 7 -11 -93 27 -118 45 -10 7 -30 30 -44 50 l-24 36 24 42 25 42
-34 170 c-19 94 -41 204 -49 245 -21 106 -20 142 8 167 31 29 100 46 79 20z
m818 -282 c0 -8 -4 -16 -9 -19 -5 -3 -8 5 -7 18 1 25 16 26 16 1z m35 15 c3
-5 1 -10 -4 -10 -6 0 -11 5 -11 10 0 6 2 10 4 10 3 0 8 -4 11 -10z m64 -60
c24 -111 52 -293 60 -397 9 -95 16 -124 50 -204 29 -68 37 -96 28 -101 -7 -4
4 -8 24 -8 20 0 38 -3 42 -6 3 -3 -4 -26 -16 -51 -16 -33 -26 -43 -39 -40 -24
7 -23 -6 3 -29 17 -15 22 -16 29 -4 8 12 13 11 30 -7 26 -29 26 -46 -1 -38
-17 6 -20 4 -12 -9 8 -14 -3 -161 -21 -286 -7 -47 -62 -266 -80 -317 -8 -23
-13 -52 -10 -65 4 -22 4 -22 -8 2 -17 35 -44 52 -108 72 -30 9 -45 17 -32 17
12 1 22 6 22 11 0 6 -10 8 -24 4 -13 -3 -27 -1 -30 5 -4 7 -1 8 8 5 10 -4 16
-1 17 7 0 8 2 41 4 74 6 107 15 146 39 155 17 7 18 9 4 9 -10 1 -18 8 -18 16
0 7 8 18 18 24 14 8 15 13 5 30 -19 30 -17 111 2 111 8 0 15 7 15 15 0 8 -5
15 -10 15 -6 0 -8 11 -4 25 5 19 2 25 -10 25 -18 0 -22 35 -6 45 6 4 8 15 5
26 -3 10 -8 68 -9 129 -2 61 -6 114 -10 117 -3 4 -6 1 -6 -6 0 -7 -4 -9 -10
-6 -5 3 -10 17 -10 31 0 16 -6 24 -17 24 -15 0 -14 2 4 15 68 47 76 118 43
365 -26 201 -31 247 -24 232 8 -16 25 -5 18 13 -4 10 0 12 15 8 14 -4 23 -18
30 -53z m90 -9 c7 -25 15 -93 19 -151 5 -97 6 -103 18 -75 8 17 13 23 14 13 0
-9 11 -38 25 -65 38 -71 76 -206 78 -276 l2 -61 -35 -10 c-19 -5 -38 -14 -42
-20 -9 -13 -8 -14 -47 72 -26 58 -35 93 -42 180 -13 140 -45 361 -59 396 -15
39 -14 41 23 42 32 0 35 -2 46 -45z m-149 -220 c27 -218 25 -251 -25 -300 -29
-28 -34 -30 -24 -11 8 13 21 31 29 40 9 8 11 12 6 8 -12 -10 -42 30 -59 80
-16 46 -14 52 20 52 13 0 23 6 23 14 0 9 -7 12 -20 9 -11 -3 -20 0 -20 6 0 6
9 11 20 11 15 0 20 7 20 28 l1 27 15 -30 c8 -16 12 -22 9 -12 -3 10 -5 41 -5
69 0 40 -3 49 -15 44 -18 -7 -18 -4 -3 29 10 23 10 28 -5 36 -9 6 -17 15 -17
20 0 6 5 7 10 4 7 -5 9 16 6 62 -8 110 9 15 34 -186z m-1715 219 c-3 -5 -12
-7 -19 -4 -7 3 -19 -2 -26 -11 -7 -8 -18 -15 -25 -15 -16 0 -61 -55 -109 -135
-20 -33 -36 -55 -36 -49 0 22 98 161 136 192 35 29 94 46 79 22z m1666 -50 c6
0 7 -5 3 -11 -8 -14 -24 8 -23 31 1 11 3 10 6 -2 2 -10 9 -18 14 -18z m-1709
-2 c-3 -13 -11 -27 -19 -31 -7 -4 -13 -12 -13 -17 0 -6 -9 -19 -19 -29 -32
-32 -54 -127 -47 -198 6 -61 6 -63 -17 -63 -32 0 -87 20 -87 31 0 17 41 91 95
174 29 44 55 90 59 102 14 45 59 73 48 31z m753 -216 c-3 -3 -6 -3 -7 -1 -2 2
-14 18 -28 34 l-25 30 32 -29 c18 -16 31 -32 28 -34z m-934 11 c-12 -20 -14
-14 -5 12 4 9 9 14 11 11 3 -2 0 -13 -6 -23z m-34 -105 c-3 -8 -6 -5 -6 6 -1
11 2 17 5 13 3 -3 4 -12 1 -19z m1206 -127 c58 -24 77 -51 50 -73 -8 -7 -13
-22 -10 -35 5 -29 -17 -98 -32 -98 -5 0 -16 -6 -22 -12 -7 -7 -20 -13 -28 -13
-20 0 -114 30 -205 65 -39 14 -78 24 -88 22 -10 -3 -18 0 -18 8 0 15 73 116
138 192 l44 51 58 -42 c32 -24 83 -53 113 -65z m312 10 c199 -83 310 -139 313
-160 6 -39 -34 -46 -160 -27 -62 9 -129 22 -148 27 -44 14 -210 111 -210 123
0 6 12 23 27 38 36 37 86 37 178 -1z m-2025 -275 c-1 -20 -2 -20 -15 4 -19 33
-19 46 0 30 8 -7 15 -22 15 -34z m683 -546 c31 -30 32 -48 2 -36 -9 3 -14 10
-10 16 3 5 -9 8 -31 6 -43 -3 -91 28 -74 48 5 7 7 16 3 20 -4 3 13 0 36 -9 24
-8 57 -28 74 -45z m-86 -27 c15 -14 29 -21 31 -15 2 7 14 7 38 0 20 -5 42 -7
50 -4 9 3 12 1 9 -4 -3 -6 -2 -10 4 -10 13 0 32 -64 35 -112 0 -9 3 -15 7 -12
8 4 25 -42 33 -88 3 -15 0 -30 -5 -33 -5 -4 -9 -2 -9 3 0 5 -12 14 -26 20 -14
7 -23 16 -19 21 3 6 -11 11 -31 13 -40 3 -35 -7 -74 143 -9 35 -12 19 -10 -50
1 -29 8 -57 17 -68 9 -9 13 -20 10 -24 -4 -3 -7 -1 -7 6 0 7 -5 9 -10 6 -19
-12 -73 -15 -89 -5 -14 8 -14 9 2 10 19 0 24 20 5 20 -10 0 -9 3 1 9 11 7 10
11 -5 21 -16 10 -16 11 -1 6 17 -5 24 8 8 18 -5 3 -8 17 -8 32 0 18 3 22 10
15 26 -26 38 0 13 28 -17 19 -28 81 -15 81 6 0 22 -12 36 -27z m262 -63 c0 -9
-4 -8 -9 5 -5 11 -9 27 -9 35 0 9 4 8 9 -5 5 -11 9 -27 9 -35z m935 -92 c-26
-47 -90 -118 -102 -116 -9 2 -15 6 -14 11 1 4 3 6 5 5 10 -7 50 29 73 67 16
25 33 45 37 45 5 0 5 -6 1 -12z m749 -50 c10 -5 14 -14 11 -20 -4 -7 -3 -8 4
-4 22 13 35 -39 27 -108 l-7 -66 -24 30 c-18 20 -46 35 -97 51 -40 11 -76 23
-82 24 -5 2 3 4 18 4 25 1 27 3 17 21 -15 27 -4 59 23 70 21 8 21 9 -3 10
l-25 2 25 7 c25 7 79 -3 113 -21z m-1975 -68 c17 -11 32 -16 32 -12 1 53 91
15 120 -51 10 -23 22 -54 25 -70 7 -26 6 -27 -20 -17 -15 6 -30 8 -33 6 -6 -6
43 -26 64 -26 8 0 14 -5 14 -10 0 -6 -20 -9 -45 -8 -24 0 -42 5 -39 10 3 4 1
8 -4 8 -11 0 -52 95 -52 121 0 32 -17 29 -18 -3 -1 -27 -22 -68 -22 -42 0 16
-47 64 -54 56 -5 -4 -7 2 -5 13 2 11 0 26 -4 33 -12 18 3 15 41 -8z m497 -8
c-3 -3 -11 0 -18 7 -9 10 -8 11 6 5 10 -3 15 -9 12 -12z m-476 -131 c-1 -18
-3 -21 -6 -8 -3 11 -11 16 -19 13 -8 -3 -13 -2 -10 3 3 4 -6 14 -19 21 -29 16
-32 27 -7 33 25 5 62 -32 61 -62z m-42 -33 c-3 -8 -6 -5 -6 6 -1 11 2 17 5 13
3 -3 4 -12 1 -19z m373 -18 c0 -5 -2 -10 -4 -10 -3 0 -8 5 -11 10 -3 6 -1 10
4 10 6 0 11 -4 11 -10z m-380 -25 c14 -19 14 -19 -2 -6 -10 7 -18 18 -18 24 0
6 1 8 3 6 1 -2 9 -13 17 -24z m418 12 c8 -10 6 -13 -7 -13 -10 0 -18 6 -18 13
0 7 4 13 7 13 4 0 12 -6 18 -13z m-391 -54 c27 -18 28 -19 7 -27 -8 -3 -13 -2
-9 3 3 5 -12 15 -32 21 -21 7 -42 17 -48 22 -15 15 55 -2 82 -19z m433 1 c0
-2 -9 0 -20 6 -11 6 -20 13 -20 16 0 2 9 0 20 -6 11 -6 20 -13 20 -16z m-318
-5 c24 -10 61 -78 72 -131 7 -30 -3 -35 -34 -18 -16 8 -18 8 -14 -4 3 -9 23
-23 45 -33 21 -9 39 -20 39 -25 0 -12 -7 -10 -48 11 -42 21 -84 92 -101 169
-10 46 -3 52 41 31z m-140 -111 c24 -9 68 -58 52 -58 -9 0 -124 71 -124 76 0
6 30 -2 72 -18z m-66 -16 c3 -25 5 -27 12 -14 6 9 21 4 58 -20 63 -42 77 -55
69 -68 -5 -8 -11 -8 -20 0 -10 8 -16 7 -22 -5 -13 -23 -36 -10 -58 33 -11 20
-25 41 -32 45 -7 4 -18 17 -24 29 -9 16 -8 19 3 16 7 -3 14 -10 14 -16z m-166
-180 c0 -9 -9 3 -20 27 -26 55 -25 65 0 23 11 -18 20 -40 20 -50z m-81 -38
c28 -56 30 -93 5 -111 -16 -12 -19 -12 -22 1 -2 9 -8 16 -13 16 -15 0 -48 85
-47 119 1 31 2 31 21 14 19 -18 19 -17 12 7 -13 40 17 10 44 -46z m472 25 c6
-11 8 -23 5 -27 -3 -3 -6 0 -6 7 0 7 -4 9 -10 6 -5 -3 -10 2 -11 12 0 15 -2
14 -9 -3 -13 -32 -30 -39 -48 -18 -16 17 -16 17 2 3 18 -13 19 -13 7 9 -11 20
-10 26 6 37 21 16 47 5 64 -26z m-491 -163 c0 -3 -4 -8 -10 -11 -5 -3 -10 -1
-10 4 0 6 5 11 10 11 6 0 10 -2 10 -4z m40 -6 c0 -5 -4 -10 -10 -10 -5 0 -10
5 -10 10 0 6 5 10 10 10 6 0 10 -4 10 -10z m234 -39 c10 -16 -22 -32 -74 -36
-29 -2 -54 -6 -56 -8 -3 -2 22 -11 53 -21 36 -10 59 -12 61 -6 2 6 8 8 12 5 5
-3 15 3 22 13 19 26 58 25 82 -2 46 -50 116 -134 152 -182 22 -28 62 -71 91
-95 28 -24 58 -56 65 -71 14 -31 23 -35 32 -15 3 6 5 -5 3 -26 -3 -38 -3 -38
14 -16 l17 23 -5 -27 c-3 -15 -8 -27 -12 -28 -59 -5 -95 -10 -102 -15 -5 -2
-13 -22 -19 -44 -9 -33 -18 -42 -63 -64 -69 -34 -287 -116 -307 -116 -21 0
-130 99 -130 118 0 9 -3 12 -6 9 -10 -10 -84 35 -84 50 0 7 6 13 14 13 8 0 21
6 28 13 7 8 40 24 72 36 87 32 113 48 120 73 6 21 7 21 17 6 5 -10 15 -18 20
-18 6 0 7 5 4 10 -3 6 0 17 9 25 19 19 26 19 26 0 0 -8 5 -15 11 -15 5 0 7 5
3 11 -4 8 1 9 16 4 17 -5 21 -4 15 5 -5 9 -4 11 3 6 6 -4 21 -2 33 4 17 10 25
8 45 -11 13 -12 24 -25 24 -28 0 -7 -111 -51 -128 -51 -7 0 -20 -4 -30 -9 -9
-5 -47 -21 -84 -36 -63 -25 -137 -75 -112 -75 7 0 52 15 100 34 49 19 115 42
147 52 31 10 57 22 57 26 0 5 5 6 10 3 6 -4 27 8 46 25 l36 31 25 -23 c46 -42
10 11 -51 75 -64 66 -77 73 -176 82 -79 7 -105 2 -272 -61 l-68 -26 -81 27
c-128 43 -132 46 -137 103 l-3 49 122 69 c67 38 134 81 150 95 24 23 34 25 86
22 81 -5 124 3 116 24 -5 13 -3 14 15 4 11 -6 23 -15 26 -20z m-755 -48 c-2
-35 -3 -40 -6 -18 -3 17 -9 35 -14 41 -5 6 -6 14 -2 17 16 17 23 4 22 -40z
m1076 -89 c50 -58 116 -133 148 -167 l59 -62 -6 -52 c-3 -28 -8 -58 -11 -65
-6 -15 100 -76 112 -64 3 3 0 6 -7 6 -7 0 -11 2 -8 5 8 9 38 -6 32 -16 -3 -5
2 -9 11 -9 10 0 13 5 9 13 -4 7 -3 9 2 4 5 -5 9 -12 9 -15 0 -4 4 -13 9 -20 7
-12 4 -12 -15 -2 -22 11 -22 10 4 -16 20 -21 30 -26 35 -16 6 9 14 5 31 -14
12 -14 29 -23 36 -20 8 3 17 0 21 -6 4 -6 3 -9 -2 -6 -5 3 -14 0 -21 -7 -10
-10 -9 -14 3 -19 9 -3 12 -1 9 4 -4 6 3 9 17 7 13 -2 23 -8 23 -12 0 -5 14
-23 30 -39 31 -32 42 -56 26 -56 -5 0 -11 9 -14 21 -3 12 -10 18 -15 15 -5 -3
-16 2 -23 11 -12 14 -12 16 1 8 9 -5 12 -5 7 1 -5 5 -27 18 -50 29 -23 11 -41
26 -39 33 1 8 -1 11 -6 8 -5 -3 -32 12 -60 33 -29 21 -83 53 -121 72 l-70 34
6 56 c5 51 3 58 -18 73 -13 9 -19 16 -14 16 5 0 0 8 -11 18 -10 10 -30 33 -44
51 -14 18 -36 45 -49 60 -36 40 -53 69 -47 79 6 10 -11 29 -29 32 -28 6 -36
14 -33 34 2 11 -1 20 -7 19 -5 -1 -11 10 -11 23 -1 13 -1 24 0 24 0 0 42 -48
91 -106z m-1305 76 c0 -5 -24 -10 -52 -9 -39 0 -48 3 -33 9 28 12 85 12 85 0z
m70 -22 c0 -19 -2 -20 -10 -8 -13 19 -13 30 0 30 6 0 10 -10 10 -22z m2740
-70 c0 -27 3 -38 9 -30 5 8 10 -13 14 -55 9 -91 9 -145 -1 -139 -4 2 -5 -30
-1 -72 4 -52 3 -80 -5 -85 -7 -6 -4 -7 7 -3 9 3 17 1 17 -3 0 -5 8 -12 18 -16
14 -5 15 -4 5 6 -7 7 -13 20 -13 28 1 11 9 6 25 -14 14 -16 25 -25 25 -19 0 7
-11 22 -25 35 -24 24 -34 46 -15 34 6 -3 10 1 10 10 0 9 -5 13 -11 9 -6 -3 -4
4 4 17 29 46 40 119 30 202 -6 47 -6 77 0 77 5 0 7 7 3 15 -8 22 37 19 58 -4
16 -18 18 -18 81 5 60 22 64 22 69 6 4 -10 42 -40 85 -66 118 -71 201 -134
210 -159 20 -55 21 -74 2 -96 -10 -11 -23 -21 -29 -21 -6 0 -57 23 -114 50
-110 54 -157 66 -211 56 -31 -6 -36 -11 -42 -44 -5 -29 -3 -39 10 -47 15 -9
70 -49 100 -73 6 -4 30 -18 55 -31 25 -13 47 -26 50 -30 3 -4 30 -27 60 -51
38 -30 47 -41 30 -36 l-25 7 21 -18 c22 -19 37 -48 37 -73 0 -24 -14 -50 -28
-50 -29 0 -290 152 -304 178 -7 13 -4 90 4 100 2 2 61 -27 132 -63 150 -78
132 -54 -24 32 -58 32 -108 66 -111 75 -8 30 -22 9 -22 -33 0 -35 -2 -39 -18
-30 -22 12 -74 9 -93 -6 -50 -40 -109 -97 -109 -105 0 -5 -16 -32 -35 -61 -19
-28 -35 -57 -35 -63 0 -6 -12 -24 -26 -40 l-26 -29 21 43 c12 23 18 42 13 42
-10 0 -4 67 8 95 5 11 11 33 14 48 4 16 17 32 31 39 14 6 27 19 30 30 4 10 11
18 16 18 6 0 7 5 3 11 -3 6 0 15 7 20 10 6 11 9 2 9 -7 0 -13 5 -13 10 0 6 7
10 15 10 8 0 15 4 15 9 0 5 -9 7 -20 4 -16 -4 -20 0 -20 18 0 13 -1 33 -2 44
-6 41 14 315 23 315 5 0 9 -19 9 -42z m880 32 c0 -5 -5 -10 -11 -10 -5 0 -7 5
-4 10 3 6 8 10 11 10 2 0 4 -4 4 -10z m8 -54 c15 -8 38 -26 51 -40 13 -14 27
-23 31 -21 4 3 14 -3 21 -12 10 -12 10 -14 2 -9 -7 4 -13 3 -13 -3 0 -5 8 -15
18 -20 9 -6 14 -11 11 -11 -4 0 2 -27 12 -61 26 -82 23 -96 -5 -29 -42 99 -89
165 -132 188 -39 20 -74 23 -74 7 0 -8 -5 -15 -11 -15 -6 0 -9 -7 -5 -15 6
-15 -12 -16 -46 0 -27 11 -22 24 15 40 41 18 91 19 125 1z m-3658 -77 c-28
-72 -59 -139 -65 -139 -2 0 11 37 29 83 19 45 37 91 40 101 4 10 9 17 12 14 2
-3 -5 -30 -16 -59z m-242 -10 c0 -57 -7 -55 -31 9 -19 48 -15 55 8 15 l16 -28
-7 34 c-4 22 -3 31 4 27 6 -4 11 -29 10 -57z m372 -4 c-12 -31 -25 -54 -27
-51 -3 3 5 30 18 60 12 31 25 54 27 51 3 -2 -6 -29 -18 -60z m266 56 c-5 -7 8
-43 33 -91 4 -8 47 -29 95 -46 48 -18 90 -34 92 -37 5 -5 -7 -21 -77 -98 -14
-15 -66 -43 -119 -64 -52 -21 -102 -47 -110 -56 -14 -17 -17 -14 -50 41 -19
33 -41 60 -48 60 -8 0 -10 5 -6 13 4 6 -2 4 -12 -5 -20 -18 -20 -17 -23 71
l-2 89 108 65 c107 64 129 75 119 58z m3524 -21 c21 -21 60 -101 60 -122 -1
-7 -7 2 -15 20 -17 39 -25 41 -19 5 l5 -28 -24 33 c-20 26 -26 29 -31 17 -9
-24 -22 -10 -20 22 1 15 2 38 3 51 1 27 15 28 41 2z m-3843 -142 c-3 -7 -5 -2
-5 12 0 14 2 19 5 13 2 -7 2 -19 0 -25z m3450 -63 c67 -43 96 -88 112 -175 5
-25 9 -40 10 -33 1 8 7 8 25 0 16 -8 22 -17 18 -31 -3 -11 -1 -17 5 -13 5 3
10 0 10 -8 0 -13 -4 -13 -25 1 -30 20 -35 14 -22 -21 11 -28 5 -48 -8 -29 -9
13 -109 74 -122 74 -11 0 -160 148 -160 159 0 5 10 21 21 35 19 24 20 32 10
65 -22 74 -28 75 126 -24z m-3417 61 c0 -2 -7 -23 -16 -47 -15 -40 -19 -59
-23 -97 0 -7 -5 -11 -10 -7 -5 3 -13 0 -16 -6 -4 -5 -13 -8 -21 -5 -8 3 -14 1
-14 -4 0 -6 -6 -10 -14 -10 -8 0 -16 -4 -18 -8 -4 -10 -161 -61 -170 -55 -20
12 -5 40 27 52 19 7 35 19 35 27 0 8 4 22 9 32 5 9 14 28 20 42 l11 25 -5 -25
c-3 -14 -7 -36 -11 -50 -3 -14 3 -7 14 16 11 22 27 41 35 41 13 0 12 -5 -5
-30 l-22 -30 30 7 c108 26 104 24 104 66 0 30 5 40 20 45 11 3 20 11 20 16 0
5 5 9 10 9 6 0 10 -2 10 -4z m50 -79 c0 -28 -9 -41 -39 -56 -18 -10 -25 -10
-35 0 -8 9 -7 10 8 5 19 -6 19 -6 3 11 -18 21 -14 31 23 55 30 19 40 15 40
-15z m720 13 c0 -5 -5 -10 -11 -10 -5 0 -7 5 -4 10 3 6 8 10 11 10 2 0 4 -4 4
-10z m3776 -77 c-6 -6 -19 24 -30 67 -3 14 4 5 15 -18 11 -24 18 -46 15 -49z
m-833 57 c3 -11 1 -20 -4 -20 -5 0 -9 9 -9 20 0 11 2 20 4 20 2 0 6 -9 9 -20z
m850 -20 c3 -11 2 -18 -3 -15 -4 3 -10 14 -13 25 -3 11 -2 18 3 15 4 -3 10
-14 13 -25z m-3893 0 c0 -5 -7 -10 -16 -10 -8 0 -12 5 -9 10 3 6 10 10 16 10
5 0 9 -4 9 -10z m730 -11 c-14 -4 -18 -7 -9 -8 9 -1 22 -8 30 -17 11 -13 8
-13 -23 2 -28 13 -33 20 -25 29 6 7 21 10 32 7 18 -5 18 -6 -5 -13z m-1252
-100 c18 -39 31 -74 28 -76 -4 -5 -36 62 -36 76 0 3 -11 18 -25 33 -28 31 -31
38 -12 38 7 0 28 -32 45 -71z m-68 57 c0 -2 -7 -7 -16 -10 -8 -3 -12 -2 -9 4
6 10 25 14 25 6z m-55 -25 c3 -5 1 -12 -5 -16 -5 -3 -10 1 -10 9 0 18 6 21 15
7z m591 -50 l21 -25 -146 -61 c-193 -82 -277 -121 -330 -157 -24 -16 -46 -26
-49 -23 -4 3 0 10 8 15 18 11 42 90 27 90 -5 0 11 11 37 25 26 14 52 25 58 25
17 0 207 78 231 95 12 8 18 15 13 15 -5 0 -1 9 9 20 25 27 90 17 121 -19z
m-647 -18 c-10 -21 -19 -46 -19 -57 0 -14 -3 -17 -10 -10 -12 12 23 104 39
104 5 0 0 -17 -10 -37z m3336 -38 c6 -1 16 3 23 8 6 5 12 6 12 1 -1 -11 -29
-49 -33 -43 -1 2 -11 15 -22 28 -12 15 -14 21 -5 15 8 -5 20 -9 25 -9z m-428
-47 c-3 -8 -6 -5 -6 6 -1 11 2 17 5 13 3 -3 4 -12 1 -19z m488 -55 c33 -22
101 -63 151 -91 66 -38 98 -63 118 -92 14 -22 24 -40 21 -40 -3 0 -22 15 -42
34 -21 18 -90 62 -153 96 -63 35 -131 74 -150 86 -19 13 -43 24 -52 24 -24 0
-24 36 0 49 13 8 21 6 32 -7 8 -10 42 -36 75 -59z m-3422 44 c10 -26 75 -49
117 -42 l38 6 -13 -38 c-8 -21 -14 -46 -15 -55 0 -11 -29 -37 -71 -65 -76 -51
-85 -51 -122 -1 -21 28 -20 33 25 156 20 52 31 64 41 39z m3200 -119 c37 -26
39 -96 2 -82 -9 4 -10 15 -5 39 6 25 4 35 -6 39 -7 3 -16 0 -20 -6 -4 -7 -3
-8 4 -4 8 5 12 -2 12 -19 0 -23 -2 -24 -20 -15 -11 6 -18 15 -15 21 4 5 0 9
-7 9 -8 1 -5 7 7 16 19 15 18 16 -15 10 -22 -4 -28 -3 -16 2 17 8 15 11 -17
31 -21 12 -37 24 -37 26 0 6 102 -46 133 -67z m213 15 c-3 -7 0 -15 6 -19 7
-4 8 -3 4 4 -12 20 12 13 64 -19 48 -29 70 -51 32 -30 -15 8 -18 6 -17 -9 1
-11 5 -23 10 -27 4 -5 5 -2 1 5 -9 14 3 16 24 2 13 -8 13 -10 1 -10 -11 0 -11
-3 3 -13 13 -9 16 -20 11 -40 -7 -25 -9 -26 -20 -11 -8 12 -14 14 -19 6 -4 -7
-14 -12 -22 -12 -8 0 -13 4 -10 9 6 10 -26 21 -61 21 -25 0 -31 15 -10 23 6 3
2 6 -10 6 -13 1 -23 7 -23 16 0 8 -9 15 -20 15 -11 0 -20 7 -20 15 0 8 7 15
15 15 17 0 20 21 4 37 -7 7 -3 9 15 6 15 -3 26 -1 26 6 0 6 -11 11 -25 11 -14
0 -25 6 -25 14 0 10 7 11 35 2 21 -6 33 -16 31 -23z m-833 12 c-3 -9 -8 -14
-10 -11 -3 3 -2 9 2 15 9 16 15 13 8 -4z m752 -60 c-3 -26 -9 -45 -12 -42 -2
3 -1 26 2 52 4 25 10 44 12 41 3 -3 2 -26 -2 -51z m-1250 5 c3 -5 1 -10 -4
-10 -6 0 -11 5 -11 10 0 6 2 10 4 10 3 0 8 -4 11 -10z m-446 -41 c19 -22 32
-42 29 -45 -3 -2 -22 16 -42 41 -46 55 -34 59 13 4z m2134 -54 c19 -30 33 -55
29 -55 -12 0 -52 44 -52 58 0 12 -3 12 -17 1 -16 -13 -17 -12 -5 3 9 11 10 18
2 23 -12 7 -13 25 -1 25 4 0 24 -25 44 -55z m-556 -12 c-3 -10 -5 -4 -5 12 0
17 2 24 5 18 2 -7 2 -21 0 -30z m100 15 c-3 -8 -6 -5 -6 6 -1 11 2 17 5 13 3
-3 4 -12 1 -19z m-3257 2 c0 -5 -5 -10 -11 -10 -5 0 -7 5 -4 10 3 6 8 10 11
10 2 0 4 -4 4 -10z m1680 -117 c0 -9 -14 1 -50 33 -22 20 -40 41 -40 47 0 6
20 -9 45 -33 25 -24 45 -45 45 -47z m-1770 67 c0 -5 -10 -10 -22 -10 -19 0
-20 2 -8 10 19 13 30 13 30 0z m3623 -15 c-3 -9 -8 -14 -10 -11 -3 3 -2 9 2
15 9 16 15 13 8 -4z m242 -15 c3 -5 1 -10 -4 -10 -6 0 -11 5 -11 10 0 6 2 10
4 10 3 0 8 -4 11 -10z m-3859 -35 c-9 -9 -21 -13 -27 -10 -7 5 -2 12 13 19 29
16 35 12 14 -9z m3922 -40 c-3 -3 -9 2 -12 12 -6 14 -5 15 5 6 7 -7 10 -15 7
-18z m-2989 -340 c0 -5 -22 15 -49 45 -27 30 -49 60 -49 65 0 6 22 -15 49 -45
27 -30 49 -59 49 -65z m-254 75 c-3 -5 1 -10 9 -10 9 0 16 4 16 8 0 5 18 9 40
9 34 1 39 -2 29 -13 -10 -12 -8 -13 16 -4 26 10 31 8 63 -27 48 -54 56 -72 37
-79 -10 -4 -13 -13 -10 -24 8 -25 -10 -34 -29 -14 -13 12 -16 13 -16 2 0 -11
-15 -14 -64 -12 -69 2 -106 10 -106 24 0 4 -9 6 -20 3 -23 -6 -75 16 -106 46
-12 11 -25 17 -29 13 -4 -4 -5 6 -1 22 6 23 4 27 -8 23 -10 -4 -16 -1 -16 9 0
11 6 13 20 9 12 -4 28 -1 36 6 12 10 18 8 30 -7 9 -10 13 -13 9 -6 -6 12 -1
14 47 16 15 1 30 5 34 9 11 11 26 8 19 -3z m3766 -87 c12 -15 12 -16 -4 -10
-10 4 -23 7 -28 7 -5 0 -9 5 -9 10 0 16 26 12 41 -7z m-44 -42 c2 -30 -20 -43
-43 -26 -18 13 -18 14 4 8 13 -3 22 -1 22 6 0 6 -6 11 -12 11 -9 0 -8 4 2 10
21 14 26 12 27 -9z m-4502 -61 c11 -18 -10 -10 -40 16 l-30 25 32 -15 c17 -9
35 -20 38 -26z m2630 -49 c90 -42 141 -84 187 -155 44 -69 73 -154 83 -246 10
-96 -23 -204 -81 -267 -27 -29 -40 -51 -37 -61 4 -10 2 -13 -5 -8 -7 4 -24 -1
-40 -12 -157 -111 -387 -86 -533 59 -54 53 -112 166 -129 253 -26 126 17 274
105 362 84 84 169 116 297 110 71 -3 98 -9 153 -35z m75 29 c-10 -6 -7 -10 13
-15 27 -7 33 -20 19 -41 -5 -7 -18 -3 -39 12 -18 12 -29 24 -26 28 4 3 1 6 -6
6 -24 0 -2 15 25 17 18 1 23 -2 14 -7z m-2632 -19 c15 -11 68 -44 117 -74 50
-31 106 -73 125 -94 l35 -38 -35 31 c-19 18 -89 64 -155 104 -66 39 -124 76
-129 81 -18 17 14 9 42 -10z m-98 -58 c59 -39 339 -202 415 -241 64 -33 250
-121 325 -154 25 -10 63 -28 85 -38 35 -17 36 -19 10 -14 -57 12 -293 120
-450 206 -205 113 -445 263 -445 277 0 10 3 12 8 5 4 -6 27 -24 52 -41z m2830
1 c0 -16 10 -34 24 -45 25 -20 91 -164 101 -221 3 -18 2 -46 -3 -63 -9 -30 -9
-30 -16 15 -10 57 -30 120 -57 171 -21 42 -84 129 -91 126 -2 -1 2 3 9 9 7 6
13 16 13 23 0 6 5 11 10 11 6 0 10 -12 10 -26z m-721 -120 c-20 -21 -20 -24
-5 -24 16 0 16 -1 2 -16 -9 -8 -17 -21 -17 -27 -1 -7 -3 -23 -6 -37 -2 -14 -5
-41 -7 -60 -2 -19 -5 -42 -6 -50 -1 -8 -9 3 -19 25 -14 31 -16 48 -9 75 5 19
12 45 15 57 3 12 11 28 19 34 8 6 14 18 14 26 0 7 7 16 15 19 8 4 16 14 16 23
1 13 2 12 6 -2 3 -11 -5 -29 -18 -43z m2006 -59 c-14 -26 -25 -56 -25 -64 -1
-9 -7 -27 -15 -41 -14 -25 -14 -25 -15 -2 0 28 24 86 53 129 30 44 31 36 2
-22z m-4681 -37 c-21 -70 -35 -85 -48 -52 -7 17 -1 30 23 56 23 24 34 22 25
-4z m3605 -40 c0 -7 -4 -22 -9 -33 -7 -17 -9 -15 -9 13 -1 17 4 32 9 32 6 0
10 -6 9 -12z m-84 -128 c3 -5 1 -10 -4 -10 -6 0 -11 5 -11 10 0 6 2 10 4 10 3
0 8 -4 11 -10z m1070 -10 c-3 -5 -11 -10 -16 -10 -6 0 -7 5 -4 10 3 6 11 10
16 10 6 0 7 -4 4 -10z m-1078 -32 c-3 -8 -6 -5 -6 6 -1 11 2 17 5 13 3 -3 4
-12 1 -19z m1035 -16 c-12 -11 -18 -23 -14 -27 4 -5 1 -5 -6 -1 -11 7 -70 -44
-71 -62 -1 -4 -5 -8 -11 -8 -5 -1 -15 -2 -21 -3 -5 0 -8 -4 -6 -8 3 -5 -1 -14
-9 -21 -12 -11 -14 -10 -14 6 0 17 56 71 134 129 35 27 49 22 18 -5z m159 1
c-12 -20 -14 -14 -5 12 4 9 9 14 11 11 3 -2 0 -13 -6 -23z m-83 -183 c-29 -55
-61 -110 -71 -122 -10 -13 3 15 28 62 26 47 54 102 63 122 9 21 21 38 25 38 5
0 -16 -45 -45 -100z m-248 46 c0 -19 -14 -34 -27 -29 -10 4 -14 2 -9 -5 3 -6
2 -13 -4 -17 -5 -3 -10 -1 -10 4 0 6 -8 3 -18 -6 -10 -10 -17 -25 -14 -33 3
-13 3 -13 -7 0 -10 14 -16 7 -11 -15 1 -5 -2 -7 -6 -3 -4 4 -13 3 -21 -3 -7
-6 -13 -7 -13 -2 0 11 90 99 110 106 20 7 30 8 30 3z m-3746 -121 c3 -9 0 -15
-9 -15 -8 0 -15 7 -15 15 0 8 4 15 9 15 5 0 11 -7 15 -15z m3899 -90 c-3 -9
-8 -14 -10 -11 -3 3 -2 9 2 15 9 16 15 13 8 -4z m-4243 -5 c0 -5 -5 -10 -11
-10 -5 0 -7 5 -4 10 3 6 8 10 11 10 2 0 4 -4 4 -10z m315 -80 c3 -5 1 -10 -4
-10 -6 0 -11 5 -11 10 0 6 2 10 4 10 3 0 8 -4 11 -10z m3761 -29 c-3 -4 -38
-18 -78 -31 -120 -36 -159 -52 -162 -64 -2 -6 -10 -35 -19 -64 -8 -28 -11 -50
-6 -46 5 3 9 11 9 19 0 7 14 21 32 29 44 23 60 19 18 -4 l-35 -19 35 5 c21 3
30 2 23 -3 -13 -9 -65 -164 -58 -172 3 -2 5 1 5 7 0 13 45 63 57 63 4 0 16 14
25 32 25 47 22 22 -11 -86 -17 -53 -33 -112 -37 -131 -8 -43 -17 -51 -44 -36
-15 8 -20 8 -20 -2 0 -9 -3 -9 -10 2 -22 35 -33 -12 -57 -232 -6 -57 -19 -62
-29 -10 -4 20 -9 32 -11 25 -2 -6 2 -33 10 -60 14 -46 16 -87 6 -98 -7 -7 -79
234 -79 264 0 36 27 132 86 308 30 89 54 170 54 182 0 38 80 81 180 96 25 4
56 13 70 21 29 15 54 18 46 5z m-317 -129 c0 -24 -1 -25 -9 -7 l-9 20 -1 -20
c-1 -11 -10 -38 -21 -60 -11 -22 -17 -31 -13 -20 29 97 39 123 46 119 4 -3 8
-17 7 -32z m-2465 -41 c3 -4 -6 -6 -19 -3 -14 2 -25 6 -25 8 0 8 39 4 44 -5z
m-152 -45 c40 -48 83 -64 109 -40 24 22 58 17 68 -8 7 -17 5 -26 -6 -35 -9 -7
-19 -10 -24 -8 -4 3 -10 -4 -14 -15 -4 -11 -11 -18 -16 -15 -5 3 -6 -1 -3 -9
10 -27 -13 -17 -38 15 -13 17 -50 60 -82 95 -33 35 -53 64 -45 64 8 0 31 -20
51 -44z m2995 -8 c-3 -7 -5 -2 -5 12 0 14 2 19 5 13 2 -7 2 -19 0 -25z m-2647
-4 c0 -2 -7 -4 -15 -4 -8 0 -15 4 -15 10 0 5 7 7 15 4 8 -4 15 -8 15 -10z
m2200 -125 c-28 -68 -48 -113 -45 -99 2 14 7 36 10 50 5 22 4 22 -10 -5 -8
-16 -13 -22 -10 -12 3 11 8 30 11 44 5 18 9 21 15 12 6 -10 11 -5 19 16 6 17
13 37 17 45 3 8 8 24 10 34 4 21 23 49 30 43 2 -2 -19 -60 -47 -128z m-2685
89 c7 -7 -31 -8 -120 -4 -71 4 -134 11 -140 17 -7 8 27 9 120 4 72 -4 135 -12
140 -17z m3153 -63 c0 -25 -2 -24 -9 10 -10 51 -10 92 1 50 4 -16 8 -43 8 -60z
m-475 30 c-3 -9 -8 -14 -10 -11 -3 3 -2 9 2 15 9 16 15 13 8 -4z m-3383 -51
c88 -90 126 -114 180 -114 44 0 50 -3 101 -58 30 -31 76 -84 104 -116 127
-151 355 -261 623 -301 42 -7 42 -7 42 -48 l1 -42 99 104 c55 58 102 102 106
99 3 -4 -44 -61 -106 -127 -104 -113 -114 -121 -148 -121 -71 0 -379 77 -439
109 -117 62 -418 314 -521 434 -105 122 -142 193 -119 225 14 19 19 16 77 -44z
m988 0 c0 -14 9 -39 21 -54 23 -32 26 -40 12 -40 -6 0 -22 15 -36 34 -22 30
-24 37 -14 60 15 32 17 32 17 0z m-678 -85 c0 -18 71 -25 235 -23 161 2 177 0
160 -13 -17 -12 -47 -14 -175 -9 -85 3 -166 6 -180 6 -14 0 -38 11 -53 25 -31
30 -36 51 -7 33 11 -7 20 -16 20 -19z m3026 -77 c-3 -3 -6 3 -6 14 0 16 -2 17
-11 4 -9 -12 -10 -12 -5 3 3 10 6 26 7 35 0 9 5 2 10 -17 6 -18 8 -36 5 -39z
m480 11 c-10 -10 -19 5 -10 18 6 11 8 11 12 0 2 -7 1 -15 -2 -18z m-203 -13
c-2 -3 -10 -5 -15 -5 -6 0 -13 -6 -16 -14 -3 -9 1 -11 17 -6 16 5 20 3 15 -9
-7 -18 -39 -22 -49 -6 -3 5 1 23 10 40 13 25 18 28 29 18 8 -7 12 -15 9 -18z
m-306 -22 c-3 -8 -6 -5 -6 6 -1 11 2 17 5 13 3 -3 4 -12 1 -19z m493 12 c0 -5
-2 -10 -4 -10 -3 0 -8 5 -11 10 -3 6 -1 10 4 10 6 0 11 -4 11 -10z m-476 -47
c-3 -29 0 -73 9 -110 8 -34 10 -60 6 -57 -5 3 -9 -5 -10 -18 0 -19 -3 -17 -14
12 -18 47 -18 61 1 30 8 -14 13 -17 10 -7 -3 10 -6 28 -6 40 0 18 -2 19 -10 7
-9 -13 -10 -13 -10 0 0 8 -3 26 -5 40 -5 22 -4 22 4 5 8 -16 10 -13 10 20 1
41 10 85 18 85 2 0 1 -21 -3 -47z m562 12 c18 -14 38 -25 44 -25 6 0 8 -4 5
-10 -3 -5 -1 -10 5 -10 6 0 4 -10 -6 -24 -8 -14 -21 -24 -27 -22 -7 1 -9 1 -4
-1 10 -6 9 -43 -2 -43 -5 0 -12 6 -15 13 -3 6 -4 -10 -1 -38 7 -79 7 -88 -7
-96 -7 -5 -10 -9 -5 -9 9 0 -35 -88 -80 -158 -30 -48 -43 -58 -118 -93 -123
-58 -155 -61 -146 -15 1 6 -5 29 -14 53 -18 46 -14 63 14 63 48 0 82 25 143
101 52 66 118 189 118 221 0 21 43 118 52 118 6 0 26 -11 44 -25z m-589 -37
c-3 -7 -5 -2 -5 12 0 14 2 19 5 13 2 -7 2 -19 0 -25z m646 -76 c-3 -12 -9 -19
-14 -16 -5 3 -3 14 3 24 15 24 19 21 11 -8z m-33 -80 c0 -7 -4 -10 -10 -7 -5
3 -10 16 -10 28 0 18 2 19 10 7 5 -8 10 -21 10 -28z m-535 -81 c14 -47 16 -66
7 -83 -10 -20 -10 -19 -6 12 4 27 3 31 -5 20 -8 -11 -10 -7 -6 20 4 27 3 30
-4 15 -5 -11 -10 -15 -10 -8 -1 6 -4 20 -7 30 -5 15 -4 16 6 3 10 -13 11 -12
7 5 -3 11 -8 29 -13 39 -4 12 -4 17 3 13 5 -3 18 -33 28 -66z m-3074 -24 c76
-58 180 -149 175 -154 -5 -5 -31 15 -85 65 -19 17 -41 32 -48 32 -7 0 -13 6
-13 13 0 7 -22 26 -50 42 -27 17 -50 33 -50 38 0 14 16 6 71 -36z m3157 -135
c30 -78 46 -117 61 -147 3 -5 -2 -4 -11 2 -8 7 -18 10 -22 6 -4 -4 -4 1 0 11
5 13 4 17 -4 12 -8 -5 -10 -2 -6 9 8 20 -26 86 -39 78 -6 -3 -7 -1 -3 5 3 6 2
14 -4 17 -6 4 -8 14 -6 23 3 10 1 24 -5 32 -8 12 -9 11 -5 -5 4 -15 1 -21 -12
-21 -16 0 -16 3 -2 33 8 18 17 32 20 33 3 0 20 -39 38 -88z m-2238 48 c-22
-31 -40 -46 -40 -34 0 8 51 64 58 64 2 0 -6 -13 -18 -30z m2214 -140 c5 -17 4
-20 -2 -10 -5 8 -13 26 -16 40 -5 17 -4 20 2 10 5 -8 13 -26 16 -40z m206 -46
c0 -9 -91 -46 -97 -40 -4 3 -4 7 -2 9 3 2 85 33 97 36 1 1 2 -2 2 -5z m1100
-374 c0 -13 -11 -13 -30 0 -12 8 -11 10 8 10 12 0 22 -4 22 -10z m-4330 -49
c0 -4 23 -31 51 -60 29 -28 46 -51 39 -51 -13 0 -110 99 -110 112 0 4 5 8 10
8 6 0 10 -4 10 -9z m26 -108 c-2 -2 -19 9 -39 26 -19 17 -37 27 -41 24 -4 -4
-4 0 -1 9 4 9 2 19 -4 23 -6 3 -11 10 -11 14 0 5 23 -14 50 -42 28 -28 48 -52
46 -54z m4307 -58 c5 -40 5 -40 -8 -10 -7 16 -10 35 -8 43 7 18 9 13 16 -33z
m-253 -29 c0 -2 -7 -7 -16 -10 -8 -3 -12 -2 -9 4 6 10 25 14 25 6z m-1470 -25
c-11 -21 -30 -37 -30 -25 0 8 30 44 37 44 2 0 -1 -9 -7 -19z m-3637 -54 c12
-33 -37 -57 -53 -26 -9 16 -7 21 12 29 32 12 35 12 41 -3z m5142 -37 c-3 -5 1
-10 8 -13 18 -7 46 -67 40 -84 -3 -7 -11 -13 -19 -13 -8 0 -11 6 -8 15 4 9 0
15 -10 15 -14 0 -22 24 -17 53 0 4 -4 7 -10 7 -6 0 -9 6 -7 12 3 7 -1 19 -9
26 -24 24 -13 36 12 12 13 -12 22 -26 20 -30z m-3588 -56 c-3 -3 -12 -4 -19
-1 -8 3 -5 6 6 6 11 1 17 -2 13 -5z m2291 -131 l-2 -98 -3 80 c-3 61 -8 83
-21 94 -16 13 -16 13 1 8 9 -4 17 -2 17 3 0 6 2 10 5 10 3 0 4 -44 3 -97z
m-219 14 c5 -27 5 -47 0 -47 -5 0 -9 12 -9 28 0 15 -3 38 -7 52 -3 14 -3 22 1
19 3 -3 10 -27 15 -52z m1571 32 c0 -5 -4 -9 -10 -9 -5 0 -10 7 -10 16 0 8 5
12 10 9 6 -3 10 -10 10 -16z m-1440 -79 c-6 -11 -13 -20 -16 -20 -2 0 0 9 6
20 6 11 13 20 16 20 2 0 0 -9 -6 -20z m-100 -37 c0 -22 -17 -50 -25 -42 -6 7
11 59 20 59 3 0 5 -8 5 -17z m407 -97 c-7 -37 -16 -64 -21 -59 -5 4 -5 -3 -1
-16 5 -16 4 -21 -4 -17 -6 4 -11 18 -11 31 0 23 40 138 46 132 2 -2 -2 -34 -9
-71z m-2964 -12 c-2 -7 0 -15 6 -19 6 -3 11 -12 11 -18 0 -16 -36 42 -45 73
l-8 25 21 -25 c11 -13 18 -30 15 -36z m2704 34 c-3 -8 -6 -5 -6 6 -1 11 2 17
5 13 3 -3 4 -12 1 -19z m-100 -10 c-3 -8 -6 -5 -6 6 -1 11 2 17 5 13 3 -3 4
-12 1 -19z m-76 -11 c-6 -6 -11 -17 -11 -24 0 -7 -8 -21 -18 -31 -11 -11 -25
-40 -33 -65 -7 -26 -17 -47 -21 -47 -22 0 -16 33 19 107 30 65 40 79 56 75 13
-3 15 -8 8 -15z m-2566 -7 c10 -11 16 -20 13 -20 -3 0 -13 9 -23 20 -10 11
-16 20 -13 20 3 0 13 -9 23 -20z m2745 -10 c0 -5 -2 -10 -4 -10 -3 0 -8 5 -11
10 -3 6 -1 10 4 10 6 0 11 -4 11 -10z m-33 -32 c-3 -8 -6 -5 -6 6 -1 11 2 17
5 13 3 -3 4 -12 1 -19z m-77 -223 c0 -14 -4 -25 -10 -25 -11 0 -14 33 -3 43
11 11 13 8 13 -18z m20 -45 c0 -5 -2 -10 -4 -10 -3 0 -8 5 -11 10 -3 6 -1 10
4 10 6 0 11 -4 11 -10z m-73 -22 c-3 -8 -6 -5 -6 6 -1 11 2 17 5 13 3 -3 4
-12 1 -19z m-60 -20 c-3 -7 -5 -2 -5 12 0 14 2 19 5 13 2 -7 2 -19 0 -25z m30
-40 c-3 -8 -6 -5 -6 6 -1 11 2 17 5 13 3 -3 4 -12 1 -19z"/>
<path d="M3229 7952 c25 -35 68 -68 77 -59 9 9 -6 27 -22 27 -8 0 -13 5 -11
11 1 7 -14 21 -33 33 l-35 21 24 -33z"/>
<path d="M3710 7600 c0 -15 15 -19 30 -9 8 5 13 9 10 10 -3 0 -13 2 -22 4 -10
2 -18 -1 -18 -5z"/>
<path d="M3721 7547 c-1 -25 1 -27 14 -13 16 16 20 30 6 22 -5 -4 -12 0 -14 6
-3 7 -6 0 -6 -15z"/>
<path d="M3742 7490 c0 -14 2 -19 5 -12 2 6 2 18 0 25 -3 6 -5 1 -5 -13z"/>
<path d="M3686 7224 c-3 -9 -4 -19 -1 -22 3 -3 5 1 5 9 0 11 2 11 10 -1 5 -8
10 -10 10 -5 0 6 -4 16 -9 23 -6 11 -10 10 -15 -4z"/>
<path d="M1910 6184 c0 -29 15 -63 23 -54 17 18 15 48 -3 65 -20 18 -20 18
-20 -11z m24 -10 c3 -8 2 -12 -4 -9 -6 3 -10 10 -10 16 0 14 7 11 14 -7z"/>
<path d="M1790 6150 c0 -5 5 -10 11 -10 5 0 7 5 4 10 -3 6 -8 10 -11 10 -2 0
-4 -4 -4 -10z"/>
<path d="M1814 6069 c0 -13 3 -15 13 -7 7 6 13 12 13 13 0 2 -6 5 -13 8 -7 3
-13 -3 -13 -14z"/>
<path d="M1995 6030 c-3 -5 -1 -10 4 -10 6 0 11 5 11 10 0 6 -2 10 -4 10 -3 0
-8 -4 -11 -10z"/>
<path d="M3700 6060 c8 -5 20 -10 25 -10 6 0 3 5 -5 10 -8 5 -19 10 -25 10 -5
0 -3 -5 5 -10z"/>
<path d="M1910 5927 c0 -21 11 -47 19 -47 12 0 6 53 -6 58 -7 2 -13 -3 -13
-11z"/>
<path d="M1907 5677 c9 -23 22 -49 30 -57 12 -13 13 -13 7 4 -5 13 -4 17 4 12
7 -4 12 -4 12 0 0 14 -41 72 -55 78 -12 4 -12 -1 2 -37z"/>
<path d="M1520 5170 c20 -13 53 -13 45 0 -3 6 -18 10 -33 10 -21 0 -24 -2 -12
-10z"/>
<path d="M1982 5086 c7 -8 15 -12 17 -11 5 6 -10 25 -20 25 -5 0 -4 -6 3 -14z"/>
<path d="M2030 5032 c0 -4 16 -24 37 -43 l36 -34 -33 43 c-34 43 -40 48 -40
34z"/>
<path d="M2125 4920 c10 -11 20 -20 23 -20 3 0 -3 9 -13 20 -10 11 -20 20 -23
20 -3 0 3 -9 13 -20z"/>
<path d="M2150 4882 c0 -4 10 -13 23 -21 22 -14 22 -14 3 8 -20 22 -26 25 -26
13z"/>
<path d="M3543 4912 c2 -29 7 -55 11 -59 10 -11 7 81 -4 97 -8 11 -9 0 -7 -38z"/>
<path d="M4300 4989 c0 -5 5 -7 10 -4 6 3 10 8 10 11 0 2 -4 4 -10 4 -5 0 -10
-5 -10 -11z"/>
<path d="M4676 4957 c3 -10 9 -15 12 -12 3 3 0 11 -7 18 -10 9 -11 8 -5 -6z"/>
<path d="M895 4740 c-3 -5 -1 -10 4 -10 6 0 11 5 11 10 0 6 -2 10 -4 10 -3 0
-8 -4 -11 -10z"/>
<path d="M1535 3810 c-3 -5 -1 -10 4 -10 6 0 11 5 11 10 0 6 -2 10 -4 10 -3 0
-8 -4 -11 -10z"/>
<path d="M4181 2388 c-5 -13 -11 -34 -15 -48 l-6 -25 13 26 c6 14 18 24 25 22
7 -3 12 5 12 21 0 32 -18 34 -29 4z"/>
<path d="M4136 2265 c-3 -9 -6 -24 -5 -33 0 -9 5 -4 10 12 9 32 6 48 -5 21z"/>
<path d="M4092 2089 c-7 -36 -12 -74 -11 -85 1 -10 7 15 15 56 8 41 12 80 10
85 -1 6 -8 -20 -14 -56z"/>
</g>
</svg>
